HIERARCHY
ROOT Hips
{
  OFFSET -125.086 92.215 135.881
  CHANNELS 6 Xposition Yposition Zposition Zrotation Xrotation Yrotation
  JOINT LeftUpLeg
  {
    OFFSET 8.64259 1.95398 -2.38835
    CHANNELS 3 Zrotation Xrotation Yrotation
    JOINT LeftLeg
    {
      OFFSET 43.7702 0 0
      CHANNELS 3 Zrotation Xrotation Yrotation
      JOINT LeftFoot
      {
        OFFSET 40.6238 0 0
        CHANNELS 3 Zrotation Xrotation Yrotation
        JOINT LeftToeBase
        {
          OFFSET 12.7242 0 0
          CHANNELS 3 Zrotation Xrotation Yrotation
          End Site
          {
            OFFSET 0 0 0
          }
        }
      }
    }
  }
  JOINT RightUpLeg
  {
    OFFSET -8.2249 1.95398 -2.59336
    CHANNELS 3 Zrotation Xrotation Yrotation
    JOINT RightLeg
    {
      OFFSET 43.5653 0 0
      CHANNELS 3 Zrotation Xrotation Yrotation
      JOINT RightFoot
      {
        OFFSET 40.6238 0 0
        CHANNELS 3 Zrotation Xrotation Yrotation
        JOINT RightToeBase
        {
          OFFSET 12.7242 0 0
          CHANNELS 3 Zrotation Xrotation Yrotation
          End Site
          {
            OFFSET 0 0 0
          }
        }
      }
    }
  }
  JOINT Spine
  {
    OFFSET 0.165834 0.87714 6.61349
    CHANNELS 3 Zrotation Xrotation Yrotation
    JOINT Spine1
    {
      OFFSET 7.38963 1.71661e-005 0
      CHANNELS 3 Zrotation Xrotation Yrotation
      JOINT Spine2
      {
        OFFSET 11.9445 1.14441e-005 0
        CHANNELS 3 Zrotation Xrotation Yrotation
        JOINT Spine3
        {
          OFFSET 14.7254 4.19617e-005 0
          CHANNELS 3 Zrotation Xrotation Yrotation
          JOINT Spine4
          {
            OFFSET 10.9679 0 0
            CHANNELS 3 Zrotation Xrotation Yrotation
            JOINT RightShoulder
            {
              OFFSET 2.46616 -1.6653 3.69651
              CHANNELS 3 Zrotation Xrotation Yrotation
              JOINT RightArm
              {
                OFFSET 13.0012 0 0
                CHANNELS 3 Zrotation Xrotation Yrotation
                JOINT RightForeArm
                {
                  OFFSET 28.7848 1.52588e-005 0
                  CHANNELS 3 Zrotation Xrotation Yrotation
                  JOINT RightHand
                  {
                    OFFSET 26.5688 1.52588e-005 0
                    CHANNELS 3 Zrotation Xrotation Yrotation
                    End Site
                    {
                      OFFSET 0 0 0
                    }
                  }
                }
              }
            }
            JOINT LeftShoulder
            {
              OFFSET 2.38034 -1.29275 -3.7523
              CHANNELS 3 Zrotation Xrotation Yrotation
              JOINT LeftArm
              {
                OFFSET 16.3182 6.10352e-005 0
                CHANNELS 3 Zrotation Xrotation Yrotation
                JOINT LeftForeArm
                {
                  OFFSET 27.0901 0 0
                  CHANNELS 3 Zrotation Xrotation Yrotation
                  JOINT LeftHand
                  {
                    OFFSET 24.5451 1.52588e-005 0
                    CHANNELS 3 Zrotation Xrotation Yrotation
                    End Site
                    {
                      OFFSET 0 0 0
                    }
                  }
                }
              }
            }
            JOINT Neck
            {
              OFFSET 5.0226 -0.0266342 0
              CHANNELS 3 Zrotation Xrotation Yrotation
              JOINT Head
              {
                OFFSET 6.69363 2.86102e-005 0
                CHANNELS 3 Zrotation Xrotation Yrotation
                End Site
                {
                  OFFSET 0 0 0
                }
              }
            }
          }
        }
      }
    }
  }
}
MOTION
Frames:	12
Frame Time:	0.0416667
-299.714 64.6787 341.824 -94.0055 -34.6233 -89.8911 -170.132 32.8079 91.6191 -101.231 15.5322 -2.25892 105.546 43.6883 18.4996 19.3912 -7.25012 39.7792 -177.862 52.3007 95.1843 -96.3632 -14.9361 -1.40593 121.116 -27.1218 9.8237 -87.4507 21.4817 6.07854 0.00108757 5.57458 -90.3484 15.7315 -0.177315 -0.673812 4.06061 -0.204011 -0.665548 -18.4709 0.0388756 -0.694684 1.54172 0.0388669 -0.694684 81.8031 -39.2671 -117.963 50.2658 20.2176 -7.33928 -32.1152 -29.3227 -54.8621 15.6939 10.7086 61.4043 -96.4384 -58.2306 71.324 -26.146 -35.2887 32.9764 39.1411 38.6114 -39.518 -10.0686 0.260483 -9.58024 -80.3902 17.4338 10.7881 91.4273 35.7495 10.2499 
-299.825 64.6822 341.989 -94.0128 -34.6547 -89.8342 -170.297 33.1636 91.8172 -101.262 15.9947 -2.25894 105.229 43.5985 18.6278 19.0687 -7.29452 39.5696 -177.864 52.3439 95.1789 -96.3036 -15.4153 -1.40311 121.594 -27.444 10.0112 -90.8139 20.7004 7.2783 0.00198055 5.57418 -90.3549 15.7314 -0.177314 -0.686615 4.06055 -0.205005 -0.678271 -18.4709 0.0398659 -0.707402 1.54174 0.0398548 -0.707405 81.7705 -39.1749 -118.061 50.2497 20.2922 -7.08381 -32.1975 -29.1537 -55.1292 15.7858 10.7651 61.3828 -96.4794 -58.2058 71.2617 -26.1552 -35.1505 32.889 39.0181 38.6615 -39.5269 -10.5832 0.283805 -9.58025 -80.3986 17.4305 10.7364 91.4537 35.7576 10.2882 
-300.145 64.697 342.464 -94.0338 -34.7461 -89.668 -170.787 34.1873 92.3975 -101.325 17.2644 -2.25834 104.303 43.3052 18.9724 18.1681 -7.38085 38.8426 -177.906 52.4999 95.2088 -96.1571 -16.8433 -1.39486 122.733 -28.3954 10.3516 -99.2811 17.5857 10.4171 0.00416886 5.57297 -90.3734 15.7313 -0.179711 -0.723386 4.06034 -0.21127 -0.71478 -18.4708 0.0461143 -0.743917 1.54184 0.0461097 -0.743916 81.6772 -38.9117 -118.342 50.2029 20.5089 -6.34421 -32.4317 -28.6667 -55.8999 16.0495 10.9264 61.3173 -96.5981 -58.1325 71.0812 -26.1783 -34.7529 32.6386 38.6806 38.8165 -39.5629 -12.0717 0.351986 -9.5833 -80.4209 17.4216 10.5853 91.5314 35.7787 10.3959 
-300.655 64.7312 343.213 -94.0668 -34.8929 -89.3995 -171.6 35.8 93.3427 -101.335 19.1781 -2.25673 102.726 42.7555 19.563 16.8183 -7.35228 37.1754 -178.065 52.835 95.3815 -96.0026 -19.295 -1.38271 123.861 -30.0147 10.2877 -109.294 10.344 14.3208 0.00785272 5.57093 -90.4027 15.731 -0.187118 -0.78142 4.06 -0.221337 -0.772429 -18.4706 0.0563712 -0.801531 1.54203 0.0563786 -0.801531 81.535 -38.5029 -118.778 50.1272 20.8551 -5.16987 -32.7931 -27.8996 -57.118 16.4627 11.176 61.2034 -96.7873 -58.0103 70.7909 -26.207 -34.1226 32.2446 38.1974 39.095 -39.6552 -14.4571 0.465163 -9.61704 -80.4501 17.4085 10.34 91.6603 35.8053 10.5608 
-301.335 64.7879 344.2 -94.1102 -35.0905 -89.0357 -172.75 37.907 94.6433 -101.255 20.0599 -2.23055 101.779 41.5893 18.4485 15.1316 -6.79136 33.191 -178.425 53.4097 95.8067 -95.9335 -23.0168 -1.372 124.192 -32.4438 9.06505 -117.26 -2.84277 17.8723 0.0128518 5.56802 -90.4413 15.7306 -0.196734 -0.858111 4.05951 -0.234294 -0.848634 -18.4703 0.0702471 -0.877562 1.54232 0.0702627 -0.87757 81.3579 -37.978 -119.335 50.0238 21.3158 -3.61865 -33.2523 -26.8974 -58.7193 17.0002 11.4948 61.0346 -97.0409 -57.8376 70.3985 -26.2317 -33.287 31.727 37.6527 39.523 -39.846 -17.6744 0.63056 -9.73385 -80.4785 17.3904 10.005 91.8433 35.8275 10.769 
-302.164 64.8603 345.389 -94.1622 -35.3348 -88.5826 -174.263 40.4001 96.3035 -100.9 21.9266 -2.20529 99.5013 40.2319 18.5155 13.2514 -3.88194 21.0404 -179.052 54.2532 96.5635 -96.0385 -28.4779 -1.3787 122.857 -35.8686 5.71524 -120.432 -23.302 21.4561 0.0192016 5.56957 -90.4881 15.7301 -0.20767 -0.950707 4.05889 -0.24931 -0.940653 -18.4709 0.0876438 -0.969167 1.54178 0.0876456 -0.969172 81.1609 -37.3683 -119.974 49.893 21.8736 -1.75235 -33.78 -25.706 -60.6365 17.6373 11.8629 60.8022 -97.3526 -57.6114 69.9109 -26.2416 -32.2737 31.1065 37.1301 40.1258 -40.181 -21.6637 0.866545 -9.99558 -80.4968 17.3664 9.5839 92.0849 35.8339 11.0056 
-303.124 64.931 346.749 -94.2212 -35.6218 -88.0465 -176.172 43.1548 98.3363 -100.227 23.7268 -2.16257 96.7604 38.4467 18.5108 25.868 2.02716 -35.1955 -179.997 55.3689 97.7056 -96.4157 -36.4322 -1.4502 118.598 -40.3253 -1.25142 -114.029 -50.5088 29.8274 0.0269964 5.57225 -90.5412 15.7271 -0.219084 -1.05614 4.05573 -0.265355 -1.04549 -18.4759 0.108454 -1.07316 1.53677 0.108445 -1.07316 80.9581 -36.7061 -120.659 49.7353 22.5092 0.362892 -34.3496 -24.3727 -62.8008 18.3498 12.2603 60.4966 -97.7156 -57.3276 69.3349 -26.2242 -31.1118 30.4039 36.7039 40.9212 -40.7036 -26.3512 1.20671 -10.4738 -80.4955 17.3352 9.07923 92.3902 35.8116 11.2547 
-304.198 64.9748 348.251 -94.285 -35.9473 -87.4341 -178.509 46.0282 100.756 -99.1698 25.389 -2.09433 93.6203 36.2361 18.4077 46.7687 -4.8213 -94.6511 178.695 56.7404 99.2779 -97.248 -47.8325 -1.74196 109.447 -45.1337 -14.172 -63.3186 -74.0343 79.0059 0.0361989 5.57628 -90.599 15.7186 -0.229928 -1.17078 4.04719 -0.281203 -1.15954 -18.4837 0.132539 -1.18576 1.5289 0.132557 -1.18575 80.7613 -36.0244 -121.354 49.5534 23.2012 2.6562 -34.9399 -22.9452 -65.143 19.1149 12.6672 60.1072 -98.1225 -56.9817 68.6777 -26.1661 -29.8329 29.6406 36.429 41.913 -41.4471 -31.6223 1.70262 -11.2363 -80.4651 17.2957 8.49288 92.7645 35.7466 11.4984 
-305.372 64.9669 349.871 -94.3517 -36.3076 -86.7523 178.708 48.8689 103.572 -97.6782 26.8804 -1.99059 90.1648 33.6311 18.1711 52.0788 -16.2275 -102.935 176.987 58.3234 101.329 -99.1347 -62.9894 -2.85731 94.1555 -47.9418 -34.6129 10.3482 -61.4986 149.326 0.0468527 5.58192 -90.659 15.7068 -0.239033 -1.29028 4.03531 -0.29557 -1.27851 -18.4947 0.159788 -1.30247 1.51792 0.159755 -1.30247 80.5796 -35.3557 -122.027 49.3519 23.9273 5.05684 -35.5367 -21.4682 -67.5978 19.9126 13.0651 59.6231 -98.5649 -56.5689 67.9474 -26.052 -28.47 28.8381 36.3259 43.0829 -42.4229 -37.2996 2.41484 -12.3217 -80.3964 17.2479 7.82559 93.2118 35.624 11.718 
-306.633 64.8918 351.591 -94.4188 -36.6986 -86.0083 175.49 51.5253 106.769 -95.7077 28.1954 -1.83955 86.4747 30.6824 17.7678 54.429 -20.375 -104.869 174.867 60.0322 103.888 -106.61 -80.1164 -9.35908 77.1203 -46.0021 -58.0257 25.3481 -42.4987 160.486 0.0588954 5.58906 -90.7189 15.6921 -0.245082 -1.40993 4.02037 -0.307078 -1.39778 -18.5087 0.189784 -1.41845 1.50396 0.189776 -1.41847 80.4177 -34.729 -122.653 49.1381 24.6666 7.4993 -36.1332 -19.9788 -70.1065 20.7265 13.4382 59.0338 -99.0343 -56.086 67.1528 -25.8657 -27.0547 28.0181 36.3761 44.3884 -43.6147 -43.1473 3.39139 -13.7184 -80.2835 17.192 7.07758 93.7333 35.4298 11.8953 
-307.967 64.7438 353.394 -94.4836 -37.1167 -85.2092 171.904 53.862 110.28 -93.2278 29.338 -1.62914 82.6215 27.4561 17.1699 55.9628 -22.758 -105.01 172.355 61.763 106.909 99.9486 -83.6295 -161.677 65.6241 -40.7358 -76.3334 31.2368 -28.2202 162.773 0.0722572 5.5974 -90.7759 15.6749 -0.247185 -1.52451 4.00309 -0.314314 -1.51214 -18.525 0.222117 -1.52841 1.48769 0.222109 -1.52841 80.2771 -34.1714 -123.21 48.9218 25.3995 9.92366 -36.7289 -18.5076 -72.6169 21.5431 13.7726 58.33 -99.5216 -55.5317 66.304 -25.5897 -25.6178 27.2027 36.524 45.7657 -44.9737 -48.8926 4.64542 -15.3583 -80.123 17.1297 6.24797 94.3263 35.1502 12.0123 
-309.364 64.52 355.269 -94.5434 -37.5578 -84.3633 168.091 55.7666 113.978 -90.2297 30.3261 -1.34624 78.6726 24.035 16.3561 57.1106 -24.3131 -104.59 169.489 63.4359 110.247 87.9989 -71.7718 -172.428 60.3227 -35.8698 -87.9388 34.8898 -17.3075 163.278 0.086707 5.6063 -90.8272 15.6566 -0.244586 -1.62824 3.9847 -0.315969 -1.61591 -18.5424 0.256059 -1.62648 1.47028 0.256038 -1.62648 80.1571 -33.7086 -123.685 48.7148 26.1083 12.2769 -37.3277 -17.0802 -75.0838 22.3512 14.0564 57.5032 -100.017 -54.9072 65.4127 -25.2063 -24.1886 26.4152 36.6848 47.138 -46.4191 -54.2713 6.1377 -17.1261 -79.9146 17.0639 5.33628 94.9827 34.7723 12.0527 
